<mxfile host="app.diagrams.net" modified="2024-05-03T08:32:03.197Z" agent="Mozilla/5.0 (Macintosh; Intel Mac OS X 10_15_7) AppleWebKit/537.36 (KHTML, like Gecko) Chrome/124.0.0.0 Safari/537.36" etag="7ChjWX3IeX3CONe06KT_" version="24.2.7" type="device">
  <diagram name="Page-1" id="5NBW6lyfdeMWrA51joHa">
    <mxGraphModel dx="949" dy="650" grid="1" gridSize="10" guides="1" tooltips="1" connect="1" arrows="1" fold="1" page="1" pageScale="1" pageWidth="850" pageHeight="1100" math="0" shadow="0">
      <root>
        <mxCell id="0" />
        <mxCell id="1" parent="0" />
        <mxCell id="iOv0mevBwm2K_tQuGI0F-3" value="SQL Database" style="shape=cylinder3;whiteSpace=wrap;html=1;boundedLbl=1;backgroundOutline=1;size=15;" parent="1" vertex="1">
          <mxGeometry x="340" y="480" width="60" height="80" as="geometry" />
        </mxCell>
        <mxCell id="k6Bf0u-Ym7abPgsb-t4X-8" style="edgeStyle=orthogonalEdgeStyle;rounded=0;orthogonalLoop=1;jettySize=auto;html=1;exitX=0.5;exitY=1;exitDx=0;exitDy=0;exitPerimeter=0;" parent="1" source="iOv0mevBwm2K_tQuGI0F-4" target="k6Bf0u-Ym7abPgsb-t4X-4" edge="1">
          <mxGeometry relative="1" as="geometry" />
        </mxCell>
        <mxCell id="iOv0mevBwm2K_tQuGI0F-4" value="Nettside&lt;div&gt;&lt;br&gt;&lt;div&gt;Next.js&lt;/div&gt;&lt;/div&gt;" style="shape=note;whiteSpace=wrap;html=1;backgroundOutline=1;darkOpacity=0.05;" parent="1" vertex="1">
          <mxGeometry x="79" y="470" width="80" height="100" as="geometry" />
        </mxCell>
        <mxCell id="iOv0mevBwm2K_tQuGI0F-5" value="Express.js&lt;br&gt;Server" style="shape=cube;whiteSpace=wrap;html=1;boundedLbl=1;backgroundOutline=1;darkOpacity=0.05;darkOpacity2=0.1;" parent="1" vertex="1">
          <mxGeometry x="550" y="480" width="120" height="80" as="geometry" />
        </mxCell>
        <mxCell id="iOv0mevBwm2K_tQuGI0F-6" value="Chrome extension" style="shape=note;whiteSpace=wrap;html=1;backgroundOutline=1;darkOpacity=0.05;" parent="1" vertex="1">
          <mxGeometry x="570" y="296" width="80" height="100" as="geometry" />
        </mxCell>
        <mxCell id="iOv0mevBwm2K_tQuGI0F-7" value="" style="shape=actor;whiteSpace=wrap;html=1;" parent="1" vertex="1">
          <mxGeometry x="100" y="316" width="40" height="60" as="geometry" />
        </mxCell>
        <mxCell id="iOv0mevBwm2K_tQuGI0F-8" value="" style="endArrow=classic;html=1;rounded=0;entryX=0;entryY=0.5;entryDx=0;entryDy=0;entryPerimeter=0;exitX=0.9;exitY=0.5;exitDx=0;exitDy=0;exitPerimeter=0;" parent="1" source="iOv0mevBwm2K_tQuGI0F-7" target="iOv0mevBwm2K_tQuGI0F-6" edge="1">
          <mxGeometry width="50" height="50" relative="1" as="geometry">
            <mxPoint x="170" y="360" as="sourcePoint" />
            <mxPoint x="260" y="320" as="targetPoint" />
          </mxGeometry>
        </mxCell>
        <mxCell id="k6Bf0u-Ym7abPgsb-t4X-1" value="" style="endArrow=classic;html=1;rounded=0;exitX=0.5;exitY=1;exitDx=0;exitDy=0;exitPerimeter=0;entryX=0.5;entryY=0;entryDx=0;entryDy=0;entryPerimeter=0;" parent="1" source="iOv0mevBwm2K_tQuGI0F-6" target="iOv0mevBwm2K_tQuGI0F-5" edge="1">
          <mxGeometry width="50" height="50" relative="1" as="geometry">
            <mxPoint x="580" y="460" as="sourcePoint" />
            <mxPoint x="630" y="410" as="targetPoint" />
          </mxGeometry>
        </mxCell>
        <mxCell id="k6Bf0u-Ym7abPgsb-t4X-2" value="" style="endArrow=classic;html=1;rounded=0;entryX=1;entryY=0.5;entryDx=0;entryDy=0;entryPerimeter=0;exitX=0.008;exitY=0.5;exitDx=0;exitDy=0;exitPerimeter=0;" parent="1" source="iOv0mevBwm2K_tQuGI0F-5" target="iOv0mevBwm2K_tQuGI0F-3" edge="1">
          <mxGeometry width="50" height="50" relative="1" as="geometry">
            <mxPoint x="539.04" y="592" as="sourcePoint" />
            <mxPoint x="390" y="590" as="targetPoint" />
          </mxGeometry>
        </mxCell>
        <mxCell id="k6Bf0u-Ym7abPgsb-t4X-3" value="" style="endArrow=classic;html=1;rounded=0;entryX=1.038;entryY=0.51;entryDx=0;entryDy=0;exitX=0;exitY=0.5;exitDx=0;exitDy=0;exitPerimeter=0;entryPerimeter=0;" parent="1" source="iOv0mevBwm2K_tQuGI0F-3" target="iOv0mevBwm2K_tQuGI0F-4" edge="1">
          <mxGeometry width="50" height="50" relative="1" as="geometry">
            <mxPoint x="340" y="590" as="sourcePoint" />
            <mxPoint x="160.05999999999997" y="590.96" as="targetPoint" />
          </mxGeometry>
        </mxCell>
        <mxCell id="k6Bf0u-Ym7abPgsb-t4X-4" value="&lt;font style=&quot;font-size: 14px;&quot;&gt;geoguessr.com/party&lt;/font&gt;" style="text;html=1;align=center;verticalAlign=middle;whiteSpace=wrap;rounded=0;" parent="1" vertex="1">
          <mxGeometry x="55" y="650" width="130" height="30" as="geometry" />
        </mxCell>
        <mxCell id="k6Bf0u-Ym7abPgsb-t4X-5" value="" style="endArrow=classic;html=1;rounded=0;entryX=0.5;entryY=0;entryDx=0;entryDy=0;entryPerimeter=0;exitX=0.5;exitY=1;exitDx=0;exitDy=0;" parent="1" source="iOv0mevBwm2K_tQuGI0F-7" target="iOv0mevBwm2K_tQuGI0F-4" edge="1">
          <mxGeometry width="50" height="50" relative="1" as="geometry">
            <mxPoint x="180" y="460" as="sourcePoint" />
            <mxPoint x="230" y="410" as="targetPoint" />
          </mxGeometry>
        </mxCell>
        <mxCell id="k6Bf0u-Ym7abPgsb-t4X-6" value="Bruker" style="text;html=1;align=center;verticalAlign=middle;resizable=0;points=[];autosize=1;strokeColor=none;fillColor=none;" parent="1" vertex="1">
          <mxGeometry x="90" y="278" width="60" height="30" as="geometry" />
        </mxCell>
        <mxCell id="k6Bf0u-Ym7abPgsb-t4X-7" value="" style="endArrow=classic;html=1;rounded=0;exitX=1;exitY=1.017;exitDx=0;exitDy=0;exitPerimeter=0;" parent="1" source="iOv0mevBwm2K_tQuGI0F-7" target="k6Bf0u-Ym7abPgsb-t4X-10" edge="1">
          <mxGeometry width="50" height="50" relative="1" as="geometry">
            <mxPoint x="255" y="480" as="sourcePoint" />
            <mxPoint x="305" y="430" as="targetPoint" />
          </mxGeometry>
        </mxCell>
        <mxCell id="k6Bf0u-Ym7abPgsb-t4X-9" value="&lt;font style=&quot;font-size: 13px;&quot;&gt;&lt;b&gt;NÃ¥&lt;/b&gt;&lt;/font&gt;" style="text;html=1;align=center;verticalAlign=middle;resizable=0;points=[];autosize=1;strokeColor=none;fillColor=none;" parent="1" vertex="1">
          <mxGeometry x="190" y="366" width="40" height="30" as="geometry" />
        </mxCell>
        <mxCell id="k6Bf0u-Ym7abPgsb-t4X-10" value="&lt;font style=&quot;font-size: 14px;&quot;&gt;krt.im/geoguessr&lt;/font&gt;" style="text;html=1;align=center;verticalAlign=middle;resizable=0;points=[];autosize=1;strokeColor=none;fillColor=none;" parent="1" vertex="1">
          <mxGeometry x="145" y="406" width="130" height="30" as="geometry" />
        </mxCell>
        <mxCell id="k6Bf0u-Ym7abPgsb-t4X-13" value="" style="edgeStyle=none;orthogonalLoop=1;jettySize=auto;html=1;rounded=0;exitX=0.346;exitY=1;exitDx=0;exitDy=0;exitPerimeter=0;entryX=0;entryY=0;entryDx=65;entryDy=15;entryPerimeter=0;" parent="1" source="k6Bf0u-Ym7abPgsb-t4X-10" target="iOv0mevBwm2K_tQuGI0F-4" edge="1">
          <mxGeometry width="100" relative="1" as="geometry">
            <mxPoint x="140" y="460" as="sourcePoint" />
            <mxPoint x="240" y="460" as="targetPoint" />
            <Array as="points" />
          </mxGeometry>
        </mxCell>
      </root>
    </mxGraphModel>
  </diagram>
</mxfile>
